<mxfile host="app.diagrams.net" modified="2024-03-18T13:29:48.653Z" agent="Mozilla/5.0 (Macintosh; Intel Mac OS X 10_15_7) AppleWebKit/537.36 (KHTML, like Gecko) Chrome/122.0.0.0 Safari/537.36" version="24.0.7" etag="fPabQKdJIrzV2h4bf4vu" type="github">
  <diagram name="페이지-1" id="DO8g2J2gpL_BnowyFzKH">
    <mxGraphModel>
      <root>
        <mxCell id="0" />
        <mxCell id="1" parent="0" />
      </root>
    </mxGraphModel>
  </diagram>
</mxfile>
